# xmcd
#
# Track frame offsets: 
#        150
#        13998
#        22985
#        33608
#        46296
#        59403
#        72514
#        86574
#        98919
#        110435
#        124521
#        138329
#        152063
#        164738
#        176910
#        190049
#        202200
#        214108
#        225984
#
# Disc length: 3163 seconds
#
# Revision: 0
# Processed by: cddbd v1.5.2PL0 Copyright (c) Steve Scherf et al.
# Submitted via: ExactAudioCopy v0.95b4
#
DISCID=110c5913
DTITLE=Ray Charles - Just Ray D2
DYEAR=1900
DGENRE=Blues
TTITLE0=I'm Going Down To The River
TTITLE1=All To Myself Alone
TTITLE2=They're Crazy About Me
TTITLE3=I Wonder Who's Kissing Her Now
TTITLE4=Baby Won't You Please Come Home
TTITLE5=Ray's Blues
TTITLE6=Baby Let Me Hold Your Hand
TTITLE7=It Should Have Been Me
TTITLE8=What Have I Done
TTITLE9=Kiss Me Baby
TTITLE10=Misery In My Heart
TTITLE11=This Love Of Mine
TTITLE12=Blues Before Sunrise
TTITLE13=Rockin' Chair Blues
TTITLE14=I Got A Woman
TTITLE15=Mess Around
TTITLE16=The Sun's Gonna Shine Again
TTITLE17=Roll With Me Baby
TTITLE18=Confession Blues
EXTD=
EXTT0=
EXTT1=
EXTT2=
EXTT3=
EXTT4=
EXTT5=
EXTT6=
EXTT7=
EXTT8=
EXTT9=
EXTT10=
EXTT11=
EXTT12=
EXTT13=
EXTT14=
EXTT15=
EXTT16=
EXTT17=
EXTT18=
PLAYORDER=
